HIERARCHY
ROOT newVegas:Hips
{
	OFFSET 0.000000 96.479958 0.000000
	CHANNELS 6 Xposition Yposition Zposition Xrotation Yrotation Zrotation
	JOINT newVegas:Pelvis
	{
		OFFSET 0.000000 0.000000 0.000000
		CHANNELS 3 Xrotation Yrotation Zrotation
		JOINT newVegas:LeftUpLeg
		{
			OFFSET 18.735201 -5.666702 -4.541200
			CHANNELS 3 Xrotation Yrotation Zrotation
			JOINT newVegas:LeftLeg
			{
				OFFSET -0.021200 -31.938179 0.493100
				CHANNELS 3 Xrotation Yrotation Zrotation
				JOINT newVegas:LeftFoot
				{
					OFFSET 0.021200 -31.938179 -4.336299
					CHANNELS 3 Xrotation Yrotation Zrotation
					JOINT newVegas:LeftToeBase
					{
						OFFSET 0.943001 -26.722000 15.023500
						CHANNELS 3 Xrotation Yrotation Zrotation
						End Site
						{
							OFFSET 0.000000 30.670183 0.000000
						}
					}
				}
				JOINT newVegas:Left_PantLeg
				{
					OFFSET 0.663870 -9.044666 -1.108900
					CHANNELS 3 Xrotation Yrotation Zrotation
					End Site
					{
						OFFSET 1.415995 20.635357 0.000000
					}
				}
			}
		}
		JOINT newVegas:RightUpLeg
		{
			OFFSET -18.735201 -5.666702 -4.541200
			CHANNELS 3 Xrotation Yrotation Zrotation
			JOINT newVegas:RightLeg
			{
				OFFSET 0.018946 -31.938133 0.493100
				CHANNELS 3 Xrotation Yrotation Zrotation
				JOINT newVegas:RightFoot
				{
					OFFSET -0.018946 -31.938126 -4.336299
					CHANNELS 3 Xrotation Yrotation Zrotation
					JOINT newVegas:RightToeBase
					{
						OFFSET -0.943001 -26.722004 15.023500
						CHANNELS 3 Xrotation Yrotation Zrotation
						End Site
						{
							OFFSET 0.000000 30.670187 0.000000
						}
					}
				}
				JOINT newVegas:Right_PantLeg
				{
					OFFSET -0.661674 -9.044716 -1.108900
					CHANNELS 3 Xrotation Yrotation Zrotation
					End Site
					{
						OFFSET -1.415958 20.635269 0.000000
					}
				}
			}
		}
	}
	JOINT newVegas:Spine
	{
		OFFSET 0.000000 10.199997 -0.299500
		CHANNELS 3 Xrotation Yrotation Zrotation
		JOINT newVegas:Spine1
		{
			OFFSET 0.000000 11.900002 -1.516600
			CHANNELS 3 Xrotation Yrotation Zrotation
			JOINT newVegas:Spine2
			{
				OFFSET 0.000000 13.600006 -2.842500
				CHANNELS 3 Xrotation Yrotation Zrotation
				JOINT newVegas:Neck
				{
					OFFSET 0.000000 9.624100 -2.890100
					CHANNELS 3 Xrotation Yrotation Zrotation
					JOINT newVegas:Head
					{
						OFFSET 0.000000 14.068802 -1.351900
						CHANNELS 3 Xrotation Yrotation Zrotation
						JOINT newVegas:Hair_Back
						{
							OFFSET 0.000000 3.231903 -17.524799
							CHANNELS 3 Xrotation Yrotation Zrotation
							End Site
							{
								OFFSET 0.000000 19.849884 0.000000
							}
						}
						JOINT newVegas:Hair_Front
						{
							OFFSET 0.000000 31.260406 4.573800
							CHANNELS 3 Xrotation Yrotation Zrotation
							JOINT newVegas:Hair_Front1
							{
								OFFSET 0.000000 2.284103 11.993300
								CHANNELS 3 Xrotation Yrotation Zrotation
								JOINT newVegas:Hair_Front2
								{
									OFFSET 0.000000 2.284103 11.993300
									CHANNELS 3 Xrotation Yrotation Zrotation
									End Site
									{
										OFFSET 0.000000 12.208862 0.000000
									}
								}
							}
						}
						JOINT newVegas:Jowel
						{
							OFFSET 0.000000 -7.458206 6.864100
							CHANNELS 3 Xrotation Yrotation Zrotation
							End Site
							{
								OFFSET 0.000000 19.849884 0.000000
							}
						}
					}
				}
				JOINT newVegas:LeftShoulder
				{
					OFFSET 15.263000 10.923401 -0.547700
					CHANNELS 3 Xrotation Yrotation Zrotation
					JOINT newVegas:LeftArm
					{
						OFFSET 25.438599 -2.830597 -13.032500
						CHANNELS 3 Xrotation Yrotation Zrotation
						JOINT newVegas:LeftForeArm
						{
							OFFSET 29.960503 0.000000 0.000000
							CHANNELS 3 Xrotation Yrotation Zrotation
							JOINT newVegas:LeftHand
							{
								OFFSET 27.849251 0.000000 0.000000
								CHANNELS 3 Xrotation Yrotation Zrotation
								JOINT newVegas:LeftHandThumb1
								{
									OFFSET 4.487587 -3.305161 6.305391
									CHANNELS 3 Xrotation Yrotation Zrotation
									JOINT newVegas:LeftHandThumb2
									{
										OFFSET 5.480453 -3.164139 3.164143
										CHANNELS 3 Xrotation Yrotation Zrotation
										JOINT newVegas:LeftHandThumb3
										{
											OFFSET 5.159721 -2.978973 2.978967
											CHANNELS 3 Xrotation Yrotation Zrotation
											End Site
											{
												OFFSET 2.494507 5.926697 1.738678
											}
										}
									}
								}
								JOINT newVegas:LeftHandIndex1
								{
									OFFSET 18.578728 -0.527832 5.208049
									CHANNELS 3 Xrotation Yrotation Zrotation
									JOINT newVegas:LeftHandIndex2
									{
										OFFSET 3.192009 0.000000 0.000000
										CHANNELS 3 Xrotation Yrotation Zrotation
										JOINT newVegas:LeftHandIndex3
										{
											OFFSET 3.835129 0.000000 0.000000
											CHANNELS 3 Xrotation Yrotation Zrotation
											End Site
											{
												OFFSET -0.034599 3.816971 0.371180
											}
										}
									}
								}
								JOINT newVegas:LeftHandMiddle1
								{
									OFFSET 18.476105 0.000000 0.000000
									CHANNELS 3 Xrotation Yrotation Zrotation
									JOINT newVegas:LeftHandMiddle2
									{
										OFFSET 3.324875 0.000000 0.000000
										CHANNELS 3 Xrotation Yrotation Zrotation
										JOINT newVegas:LeftHandMiddle3
										{
											OFFSET 4.596550 0.000000 0.000000
											CHANNELS 3 Xrotation Yrotation Zrotation
											End Site
											{
												OFFSET 0.057701 4.578827 0.399218
											}
										}
									}
								}
								JOINT newVegas:LeftHandRing1
								{
									OFFSET 17.732719 0.121887 -4.201567
									CHANNELS 3 Xrotation Yrotation Zrotation
									JOINT newVegas:LeftHandRing2
									{
										OFFSET 2.733170 0.000000 0.000000
										CHANNELS 3 Xrotation Yrotation Zrotation
										JOINT newVegas:LeftHandRing3
										{
											OFFSET 3.178268 0.000000 0.000000
											CHANNELS 3 Xrotation Yrotation Zrotation
											End Site
											{
												OFFSET 0.119102 3.170624 0.185394
											}
										}
									}
								}
								JOINT newVegas:LeftHandPinky1
								{
									OFFSET 15.989624 -0.606689 -7.535461
									CHANNELS 3 Xrotation Yrotation Zrotation
									JOINT newVegas:LeftHandPinky2
									{
										OFFSET 2.538986 0.000000 0.000000
										CHANNELS 3 Xrotation Yrotation Zrotation
										JOINT newVegas:LeftHandPinky3
										{
											OFFSET 2.593102 0.000000 0.000000
											CHANNELS 3 Xrotation Yrotation Zrotation
											End Site
											{
												OFFSET -0.150902 2.584198 0.152708
											}
										}
									}
								}
							}
							JOINT newVegas:Left_Sleeve
							{
								OFFSET 0.267448 -0.649796 0.577675
								CHANNELS 3 Xrotation Yrotation Zrotation
								End Site
								{
									OFFSET 0.000000 15.991241 0.000000
								}
							}
							JOINT newVegas:Left_CapeC
							{
								OFFSET 15.715958 -8.608795 -6.935905
								CHANNELS 3 Xrotation Yrotation Zrotation
								JOINT newVegas:Left_CapeC1
								{
									OFFSET 0.000000 -8.688499 0.000000
									CHANNELS 3 Xrotation Yrotation Zrotation
									End Site
									{
										OFFSET 0.000000 8.688499 0.000000
									}
								}
							}
						}
						JOINT newVegas:Left_CapeB
						{
							OFFSET 26.118385 -8.608795 -7.079235
							CHANNELS 3 Xrotation Yrotation Zrotation
							JOINT newVegas:Left_CapeB1
							{
								OFFSET 0.000000 -8.688499 0.000000
								CHANNELS 3 Xrotation Yrotation Zrotation
								End Site
								{
									OFFSET 0.000000 8.688499 0.000000
								}
							}
						}
						JOINT newVegas:Left_CapeA
						{
							OFFSET 5.115639 -8.608795 -10.395809
							CHANNELS 3 Xrotation Yrotation Zrotation
							JOINT newVegas:Left_CapeA1
							{
								OFFSET 0.000000 -8.688499 0.000000
								CHANNELS 3 Xrotation Yrotation Zrotation
								End Site
								{
									OFFSET 0.000000 8.688499 0.000000
								}
							}
						}
					}
				}
				JOINT newVegas:RightShoulder
				{
					OFFSET -15.263000 10.923401 -0.547700
					CHANNELS 3 Xrotation Yrotation Zrotation
					JOINT newVegas:RightArm
					{
						OFFSET -25.438599 -2.830597 -13.032500
						CHANNELS 3 Xrotation Yrotation Zrotation
						JOINT newVegas:RightForeArm
						{
							OFFSET -29.960503 0.000000 0.000000
							CHANNELS 3 Xrotation Yrotation Zrotation
							JOINT newVegas:RightHand
							{
								OFFSET -27.849251 0.000000 0.000000
								CHANNELS 3 Xrotation Yrotation Zrotation
								JOINT newVegas:RightHandThumb1
								{
									OFFSET -4.487587 -3.305161 6.305391
									CHANNELS 3 Xrotation Yrotation Zrotation
									JOINT newVegas:RightHandThumb2
									{
										OFFSET -5.480453 -3.164139 3.164143
										CHANNELS 3 Xrotation Yrotation Zrotation
										JOINT newVegas:RightHandThumb3
										{
											OFFSET -5.159721 -2.978973 2.978967
											CHANNELS 3 Xrotation Yrotation Zrotation
											End Site
											{
												OFFSET -2.494507 5.926697 1.738678
											}
										}
									}
								}
								JOINT newVegas:RightHandIndex1
								{
									OFFSET -18.578728 -0.527832 5.208049
									CHANNELS 3 Xrotation Yrotation Zrotation
									JOINT newVegas:RightHandIndex2
									{
										OFFSET -3.192009 0.000000 0.000000
										CHANNELS 3 Xrotation Yrotation Zrotation
										JOINT newVegas:RightHandIndex3
										{
											OFFSET -3.835129 0.000000 0.000000
											CHANNELS 3 Xrotation Yrotation Zrotation
											End Site
											{
												OFFSET 0.034599 3.816971 0.371180
											}
										}
									}
								}
								JOINT newVegas:RightHandMiddle1
								{
									OFFSET -18.476105 0.000000 0.000000
									CHANNELS 3 Xrotation Yrotation Zrotation
									JOINT newVegas:RightHandMiddle2
									{
										OFFSET -3.324875 0.000000 0.000000
										CHANNELS 3 Xrotation Yrotation Zrotation
										JOINT newVegas:RightHandMiddle3
										{
											OFFSET -4.596550 0.000000 0.000000
											CHANNELS 3 Xrotation Yrotation Zrotation
											End Site
											{
												OFFSET -0.057701 4.578827 0.399218
											}
										}
									}
								}
								JOINT newVegas:RightHandRing1
								{
									OFFSET -17.732719 0.121887 -4.201567
									CHANNELS 3 Xrotation Yrotation Zrotation
									JOINT newVegas:RightHandRing2
									{
										OFFSET -2.733170 0.000000 0.000000
										CHANNELS 3 Xrotation Yrotation Zrotation
										JOINT newVegas:RightHandRing3
										{
											OFFSET -3.178268 0.000000 0.000000
											CHANNELS 3 Xrotation Yrotation Zrotation
											End Site
											{
												OFFSET -0.119102 3.170624 0.185394
											}
										}
									}
								}
								JOINT newVegas:RightHandPinky1
								{
									OFFSET -15.989624 -0.606689 -7.535461
									CHANNELS 3 Xrotation Yrotation Zrotation
									JOINT newVegas:RightHandPinky2
									{
										OFFSET -2.538986 0.000000 0.000000
										CHANNELS 3 Xrotation Yrotation Zrotation
										JOINT newVegas:RightHandPinky3
										{
											OFFSET -2.593102 0.000000 0.000000
											CHANNELS 3 Xrotation Yrotation Zrotation
											End Site
											{
												OFFSET 0.150902 2.584198 0.152708
											}
										}
									}
								}
							}
							JOINT newVegas:Right_CapeC
							{
								OFFSET -15.715958 -8.608795 -6.935905
								CHANNELS 3 Xrotation Yrotation Zrotation
								JOINT newVegas:Right_CapeC1
								{
									OFFSET 0.000000 -8.688499 0.000000
									CHANNELS 3 Xrotation Yrotation Zrotation
									End Site
									{
										OFFSET 0.000000 8.688499 0.000000
									}
								}
							}
							JOINT newVegas:Right_Sleeve
							{
								OFFSET -0.267448 -0.649994 0.577675
								CHANNELS 3 Xrotation Yrotation Zrotation
								End Site
								{
									OFFSET 0.000000 15.991302 0.000000
								}
							}
						}
						JOINT newVegas:Right_CapeA
						{
							OFFSET -5.115540 -8.608795 -10.395824
							CHANNELS 3 Xrotation Yrotation Zrotation
							JOINT newVegas:Right_CapeA1
							{
								OFFSET 0.000000 -8.688499 0.000000
								CHANNELS 3 Xrotation Yrotation Zrotation
								End Site
								{
									OFFSET 0.000000 8.688499 0.000000
								}
							}
						}
						JOINT newVegas:Right_CapeB
						{
							OFFSET -26.118187 -8.608795 -7.079266
							CHANNELS 3 Xrotation Yrotation Zrotation
							JOINT newVegas:Right_CapeB1
							{
								OFFSET 0.000000 -8.688499 0.000000
								CHANNELS 3 Xrotation Yrotation Zrotation
								End Site
								{
									OFFSET 0.000000 8.688499 0.000000
								}
							}
						}
					}
				}
				JOINT newVegas:Left_Collar
				{
					OFFSET 18.625099 8.655502 8.828100
					CHANNELS 3 Xrotation Yrotation Zrotation
					JOINT newVegas:Left_Collar1
					{
						OFFSET 14.783401 10.540405 -1.259500
						CHANNELS 3 Xrotation Yrotation Zrotation
						End Site
						{
							OFFSET 0.000000 18.199875 0.000000
						}
					}
				}
				JOINT newVegas:Collar_Back
				{
					OFFSET 0.000000 15.630707 -20.132601
					CHANNELS 3 Xrotation Yrotation Zrotation
					End Site
					{
						OFFSET 0.000000 22.523010 0.000000
					}
				}
				JOINT newVegas:Left_Peck
				{
					OFFSET 17.239599 -5.132599 25.482599
					CHANNELS 3 Xrotation Yrotation Zrotation
					End Site
					{
						OFFSET 0.000000 22.523010 0.000000
					}
				}
				JOINT newVegas:Right_Peck
				{
					OFFSET -17.239599 -5.132202 25.482599
					CHANNELS 3 Xrotation Yrotation Zrotation
					End Site
					{
						OFFSET 0.000000 22.523010 0.000000
					}
				}
				JOINT newVegas:Right_Collar
				{
					OFFSET -18.625099 8.655792 8.828100
					CHANNELS 3 Xrotation Yrotation Zrotation
					JOINT newVegas:Right_Collar1
					{
						OFFSET -14.783401 10.539993 -1.259500
						CHANNELS 3 Xrotation Yrotation Zrotation
						End Site
						{
							OFFSET 0.000000 18.199631 0.000000
						}
					}
				}
			}
		}
		JOINT newVegas:Belly
		{
			OFFSET 0.000000 -6.540398 9.014299
			CHANNELS 3 Xrotation Yrotation Zrotation
			End Site
			{
				OFFSET 0.000000 11.566666 0.000000
			}
		}
	}
	JOINT newVegas:ElvisFacialAnim_Joint
	{
		OFFSET 1.000000 -95.330101 -8.825800
		CHANNELS 3 Xrotation Yrotation Zrotation
		End Site
		{
			OFFSET 0.000000 35.315800 0.000000
		}
	}
}
MOTION
Frames: 4
Frame Time: 0.033333
1.169617 57.053810 -2.453364 44.603154 51.058215 -45.096351 0.000001 -0.000000 0.000000 -102.057506 -11.059856 25.764696 124.861117 4.615449 -2.094746 -46.201681 -0.716782 -11.632422 -0.000000 0.000000 0.000000 -0.000002 -0.000001 0.000001 -108.970812 3.002472 -18.167506 119.597514 6.560402 -1.334574 -17.597513 4.333496 -1.065738 -0.000001 0.000000 0.000000 0.000000 -0.000003 0.000001 16.964358 4.202140 -0.514569 4.488726 1.521569 -1.163527 4.358431 3.027170 5.403412 -0.916662 1.924559 -2.649328 -0.916651 1.924583 -2.649347 -0.000000 -0.000001 0.000002 -0.916619 1.924551 -2.649333 -0.916693 1.924606 -2.649339 -0.000001 -0.000000 -0.000000 -0.000000 -0.000001 0.000001 6.168966 -5.970356 4.387089 -84.050826 -17.177434 -34.757716 12.882748 -46.016419 15.127150 -55.948904 -2.895579 15.219752 17.553091 -5.694961 -12.932684 10.837218 26.091806 8.643143 -0.000000 -0.000002 -0.000005 13.980939 1.201534 -55.004340 0.381513 1.169658 -65.445042 -0.000000 -0.000001 0.000002 7.504738 1.174300 -63.778503 1.807963 1.478077 -64.568039 -0.000001 -0.000001 0.000001 8.574668 2.177902 -75.148924 -0.201111 0.998972 -57.855131 0.000000 -0.000002 -0.000003 10.030169 13.637012 -84.750217 0.869746 0.055021 -64.595073 0.000001 -0.000003 -0.000001 -0.000000 -0.000000 0.000000 -0.000000 -0.000000 0.000000 -0.000001 -0.000000 0.000000 -0.000001 0.000000 -0.000000 -0.000001 -0.000001 -0.000000 -0.000001 0.000000 -0.000000 -0.000001 0.000000 -0.000002 7.395494 12.434690 16.289612 -9.909599 -13.062103 48.148746 9.108424 28.595598 -1.244452 -0.953444 4.796350 -2.623446 15.434307 0.403526 -16.484885 -0.527498 -33.437789 7.609951 0.000001 -0.000008 -0.000000 1.454438 -2.731827 3.218203 -2.295316 -2.343427 22.050385 -0.000000 -0.000006 -0.000001 -2.313583 -5.716943 16.876605 0.716651 -5.060868 31.883238 0.000001 -0.000001 0.000000 -3.468770 -9.446245 16.337599 4.359736 -3.711340 38.093604 -0.000002 0.000001 0.000001 -4.965535 -12.476985 28.180286 10.894842 -1.653894 39.571118 0.000001 0.000001 0.000002 0.000000 -0.000000 0.000000 0.000000 -0.000001 -0.000000 0.000000 -0.000000 0.000001 -0.000000 0.000005 0.000000 -0.000000 0.000006 0.000001 -0.000000 0.000005 0.000000 -0.000000 0.000006 0.000000 -0.000002 -0.000001 -0.000000 -0.000002 -0.000001 -0.000000 -0.000002 -0.000001 -0.000000 -0.000002 -0.000001 -0.000000 -0.000002 -0.000001 -0.000000 -0.000002 -0.000001 -0.000000 -0.000002 -0.000001 -0.000000 0.000000 -0.000000 0.000001 0.000001 -0.000000 0.000000 
1.147095 56.291145 -1.221742 45.302282 52.511123 -46.252832 -0.000002 -0.000001 -0.000000 -102.224402 -14.277018 26.089221 125.764929 2.369277 -2.296029 -45.173703 -0.780078 -12.466991 0.000000 0.000000 0.000000 0.000001 -0.000000 0.000001 -107.141318 2.865889 -16.718497 122.050276 7.395124 -1.557428 -22.375392 2.055573 -0.352561 -0.000001 -0.000000 -0.000000 -0.000001 -0.000001 -0.000001 16.499604 4.187224 -0.636562 4.724574 1.448784 -1.290749 4.596456 2.930097 5.285716 -0.771590 1.680524 -2.602454 -0.771569 1.680538 -2.602480 -0.000001 -0.000001 0.000001 -0.771521 1.680504 -2.602456 -0.771613 1.680532 -2.602467 -0.000003 -0.000000 0.000001 -0.000001 -0.000001 0.000001 6.294269 -6.103174 5.095856 -85.163156 -18.821747 -35.525549 11.997185 -43.885400 13.844082 -55.851789 -3.245227 13.891608 17.550818 -5.701585 -12.932054 10.843579 26.109056 8.643948 0.000001 -0.000003 -0.000007 13.980938 1.201537 -55.004340 0.381637 1.169768 -65.454604 -0.000001 -0.000001 0.000001 7.504739 1.174301 -63.778503 1.807967 1.478078 -64.568039 0.000001 0.000000 -0.000002 8.574667 2.177904 -75.148931 -0.201112 0.998972 -57.855131 -0.000000 -0.000001 0.000001 10.030172 13.637013 -84.750217 0.869745 0.055019 -64.595080 -0.000003 -0.000000 0.000002 0.000002 -0.000000 0.000000 0.000002 -0.000000 0.000000 0.000001 -0.000000 0.000000 -0.000002 0.000001 0.000001 -0.000003 0.000000 0.000003 -0.000002 0.000001 0.000001 -0.000002 0.000001 -0.000000 7.279793 12.227028 16.565306 -9.575375 -11.798738 47.565837 9.123412 28.354154 -1.297109 -6.173049 4.967714 -3.935879 15.483583 -0.019439 -16.583783 -0.733055 -33.155415 7.568335 0.000001 0.000000 -0.000000 1.540339 -2.702291 3.784069 -2.279365 -2.359453 21.545007 0.000000 -0.000001 0.000000 -1.891799 -6.068092 16.962751 0.683429 -5.065262 31.506846 0.000002 -0.000000 -0.000001 -3.025205 -9.776627 16.267453 4.335591 -3.739336 37.722226 0.000000 0.000006 -0.000003 -4.716759 -12.844660 28.073788 10.884080 -1.723929 39.206041 -0.000003 0.000003 -0.000000 -0.000000 -0.000000 -0.000000 -0.000000 -0.000002 -0.000000 -0.000000 -0.000000 -0.000000 -0.000000 0.000005 0.000002 -0.000000 0.000006 0.000001 -0.000000 0.000005 0.000002 -0.000000 0.000006 0.000002 -0.000003 -0.000001 0.000001 -0.000003 -0.000001 0.000001 -0.000003 -0.000001 0.000001 -0.000003 -0.000001 0.000001 -0.000003 -0.000001 0.000001 -0.000003 -0.000001 0.000001 -0.000003 -0.000001 0.000001 0.000002 0.000000 -0.000001 -0.000002 -0.000001 -0.000000 
1.008820 55.622620 -0.157865 45.538521 53.035808 -46.733486 -0.000002 0.000002 -0.000000 -102.332346 -16.999241 27.190532 126.455898 0.219926 -2.499773 -44.397964 -0.768656 -13.157494 0.000000 -0.000000 0.000000 -0.000003 0.000001 0.000001 -105.786311 2.500184 -13.781338 124.016359 7.675036 -1.876336 -26.896056 0.087398 -0.246836 -0.000000 0.000000 0.000000 -0.000001 0.000002 -0.000002 16.197133 4.255226 -0.903514 4.846055 1.514394 -1.519732 4.720022 2.942458 5.044446 -0.704210 1.521011 -2.640987 -0.704214 1.521012 -2.640982 0.000001 -0.000001 0.000001 -0.704257 1.521030 -2.640984 -0.704124 1.521025 -2.640990 0.000000 -0.000000 0.000000 0.000001 -0.000001 0.000001 6.439196 -6.243185 5.848234 -86.492974 -20.249243 -35.751625 10.882687 -41.378304 12.360213 -55.736563 -3.780913 12.266568 17.552155 -5.697727 -12.932423 10.840835 26.101592 8.643592 -0.000003 -0.000001 -0.000006 13.980940 1.201535 -55.004336 0.381568 1.169704 -65.447808 0.000001 -0.000001 0.000001 7.504739 1.174300 -63.778503 1.807965 1.478075 -64.568032 0.000000 -0.000002 -0.000002 8.574668 2.177903 -75.148924 -0.201108 0.998972 -57.855131 0.000000 -0.000001 0.000004 10.030170 13.637015 -84.750217 0.869746 0.055024 -64.595073 -0.000000 -0.000003 -0.000001 -0.000000 -0.000000 0.000000 -0.000000 -0.000000 0.000000 -0.000001 -0.000000 0.000000 0.000001 -0.000001 0.000002 0.000001 -0.000002 0.000002 0.000001 -0.000001 0.000002 -0.000001 -0.000002 0.000001 7.423416 12.098796 16.822107 -9.768765 -10.255077 46.714649 9.096292 27.949177 -1.326304 -9.550800 5.605494 -6.532585 15.532631 -0.443577 -16.683003 -0.942978 -32.866727 7.528435 0.000001 -0.000006 -0.000001 1.630110 -2.685979 4.396113 -2.262903 -2.375789 21.024270 0.000001 -0.000000 0.000000 -1.473051 -6.415919 17.035928 0.650204 -5.069478 31.130448 -0.000000 -0.000001 -0.000001 -2.591633 -10.102654 16.180590 4.311305 -3.767198 37.350852 -0.000003 -0.000001 0.000003 -4.483007 -13.195641 27.948518 10.872872 -1.793899 38.840994 -0.000000 0.000002 -0.000004 -0.000001 0.000002 -0.000000 -0.000000 0.000002 -0.000000 -0.000000 0.000002 0.000001 -0.000000 -0.000001 -0.000000 -0.000000 0.000000 -0.000001 -0.000000 -0.000001 -0.000000 -0.000000 -0.000000 -0.000001 -0.000002 0.000000 -0.000000 -0.000002 0.000000 -0.000000 -0.000002 0.000000 -0.000000 -0.000002 0.000000 -0.000000 -0.000002 0.000000 -0.000000 -0.000002 0.000000 -0.000000 -0.000002 0.000000 -0.000000 0.000000 -0.000001 0.000001 -0.000002 0.000002 -0.000000 
0.824585 54.952469 0.719255 46.009855 53.256706 -47.136662 -0.000002 0.000000 -0.000000 -102.746761 -19.170929 28.049753 126.971550 -1.469064 -2.668121 -43.560874 -0.734288 -13.837079 -0.000000 0.000000 0.000000 -0.000000 0.000000 0.000000 -106.205583 1.978397 -11.696657 125.908923 6.330325 -2.045198 -28.871128 -0.728034 -0.373880 -0.000000 0.000001 -0.000000 0.000003 0.000000 -0.000001 15.980156 4.224460 -1.080858 4.948662 1.505815 -1.782577 4.827081 2.875456 4.783804 -0.571658 1.453828 -2.781117 -0.571620 1.453851 -2.781142 -0.000000 -0.000001 0.000000 -0.571643 1.453837 -2.781133 -0.571696 1.453830 -2.781119 -0.000002 0.000000 -0.000000 -0.000000 -0.000001 0.000000 6.601648 -6.388575 6.636476 -87.704410 -21.192738 -35.532529 9.778368 -39.159162 11.015107 -55.663634 -4.166871 10.791178 17.550647 -5.702105 -12.931985 10.840643 26.101027 8.643556 -0.000003 -0.000001 -0.000006 13.980937 1.201535 -55.004336 0.381473 1.169618 -65.441654 -0.000001 -0.000002 -0.000001 7.504738 1.174302 -63.778503 1.807962 1.478075 -64.568039 0.000000 0.000001 -0.000003 8.574670 2.177903 -75.148924 -0.201113 0.998971 -57.855131 0.000002 -0.000002 -0.000002 10.030170 13.637012 -84.750217 0.869746 0.055020 -64.595080 -0.000001 0.000000 0.000001 -0.000000 -0.000000 0.000000 -0.000000 -0.000000 0.000000 -0.000001 -0.000000 0.000000 -0.000003 -0.000001 -0.000001 -0.000003 -0.000002 -0.000001 -0.000003 -0.000001 -0.000001 -0.000005 -0.000002 -0.000002 7.618783 12.675581 17.096889 -10.556394 -8.404888 45.024091 8.118528 26.998008 -0.710971 -10.690310 5.939366 -8.470979 15.580587 -0.860690 -16.780730 -1.152257 -32.578254 7.491474 0.000000 0.000003 -0.000000 1.721735 -2.682729 5.032392 -2.246364 -2.391905 20.503818 0.000001 -0.000002 -0.000000 -1.071827 -6.744865 17.086623 0.616916 -5.073466 30.754149 -0.000000 0.000001 0.000001 -2.182805 -10.408019 16.070923 4.286817 -3.794928 36.979385 -0.000000 -0.000001 0.000003 -4.275791 -13.516475 27.798822 10.861240 -1.863759 38.475890 -0.000003 0.000003 0.000002 -0.000000 0.000001 -0.000001 -0.000000 -0.000000 -0.000001 -0.000000 0.000001 -0.000000 -0.000001 -0.000001 0.000000 -0.000001 0.000000 0.000000 -0.000001 -0.000001 0.000000 -0.000001 -0.000000 0.000000 0.000000 0.000000 0.000001 0.000000 0.000000 0.000001 0.000000 0.000000 0.000001 0.000000 0.000000 0.000001 0.000000 0.000000 0.000001 0.000000 0.000000 0.000001 0.000000 0.000000 0.000001 -0.000001 0.000000 -0.000000 -0.000002 0.000000 -0.000000 
